<?xml version="1.0" encoding="UTF-8" standalone="no"?>
<!-- Created with Inkscape (http://www.inkscape.org/) -->

<svg
   xmlns:dc="http://purl.org/dc/elements/1.1/"
   xmlns:cc="http://creativecommons.org/ns#"
   xmlns:rdf="http://www.w3.org/1999/02/22-rdf-syntax-ns#"
   xmlns:svg="http://www.w3.org/2000/svg"
   xmlns="http://www.w3.org/2000/svg"
   xmlns:sodipodi="http://sodipodi.sourceforge.net/DTD/sodipodi-0.dtd"
   xmlns:inkscape="http://www.inkscape.org/namespaces/inkscape"
   width="94.163803mm"
   height="112.19118mm"
   viewBox="0 0 94.163803 112.19118"
   version="1.1"
   id="svg8"
   inkscape:version="0.92.3 (2405546, 2018-03-11)"
   sodipodi:docname="Ginkgo logo finale.svg">
  <defs
     id="defs2" />
  <sodipodi:namedview
     id="base"
     pagecolor="#ffffff"
     bordercolor="#666666"
     borderopacity="1.0"
     inkscape:pageopacity="0.0"
     inkscape:pageshadow="2"
     inkscape:zoom="2.8"
     inkscape:cx="271.07713"
     inkscape:cy="330.01289"
     inkscape:document-units="mm"
     inkscape:current-layer="layer1"
     showgrid="false"
     inkscape:window-width="1920"
     inkscape:window-height="1046"
     inkscape:window-x="-11"
     inkscape:window-y="-11"
     inkscape:window-maximized="1" />
  <metadata
     id="metadata5">
    <rdf:RDF>
      <cc:Work
         rdf:about="">
        <dc:format>image/svg+xml</dc:format>
        <dc:type
           rdf:resource="http://purl.org/dc/dcmitype/StillImage" />
        <dc:title></dc:title>
      </cc:Work>
    </rdf:RDF>
  </metadata>
  <g
     inkscape:label="Ebene 1"
     inkscape:groupmode="layer"
     id="layer1"
     transform="translate(-6.7741462,-139.06856)">
    <path
       style="fill:#000000;stroke-width:0.5146541"
       d="m 64.448768,250.79721 c -9.110744,-13.30786 -7.580007,-34.46504 -11.59778,-47.266 -2.480226,-7.57145 -4.665477,-10.35655 -9.862251,-12.65532 -2.763244,-1.22232 -9.966781,-6.38883 -9.966781,-7.14835 0,-0.63415 6.544861,2.64339 9.934202,4.97482 3.00991,2.07046 3.739493,1.88842 1.607997,-0.40117 -0.828545,-0.89002 -1.216951,-1.45291 -0.863127,-1.2509 0.825544,0.47134 0.814748,-0.714 -0.01633,-1.79723 -0.921955,-1.20161 -5.462687,-6.51408 -7.832108,-9.16322 -1.132239,-1.26589 -1.758949,-2.12367 -1.392689,-1.90614 0.932443,0.55376 9.679124,10.79848 10.451275,12.24126 0.365362,0.68267 0.722577,0.92366 0.841279,0.56757 0.31117,-0.93351 -2.119976,-4.79931 -7.862346,-12.50204 -2.848777,-3.82131 -6.249279,-8.45319 -7.556673,-10.29309 -1.30739,-1.83989 -3.958544,-5.04875 -5.891447,-7.13082 l -3.514369,-3.78558 -1.305666,1.03475 c -0.718117,0.56914 -2.283057,1.54421 -3.47764,2.16686 -1.450128,0.75585 -2.082922,1.85182 -2.306721,2.76075 -0.184362,0.74877 -1.077921,1.81079 -1.740692,2.68668 -1.373563,1.76509 -2.2934158,3.4461 -0.227632,3.45807 2.26649,1.37576 -0.749748,0.54177 -1.264549,0.87506 -0.6283116,0.40669 -4.8695265,4.08092 -2.1414105,6.70468 1.0417449,1.50573 1.5001644,1.86671 5.8520455,3.09673 2.887226,1.13553 6.362052,0.67302 7.201564,1.32287 0.864735,0.66941 2.087653,1.01705 1.468924,0.71909 -0.600679,-0.28926 -8.251164,-0.23362 -12.864254,-1.96344 -1.5243669,-0.5716 -1.6591559,-1.35297 -2.3547216,-2.20213 -2.8557809,-3.48638 1.1737594,-9.71779 3.0120786,-12.48144 0.787069,-1.18324 1.732954,-2.75156 2.101969,-3.48515 0.369017,-0.73358 1.735795,-1.85115 3.037289,-2.48347 1.385277,-0.67302 3.954934,-2.83962 6.198006,-5.22584 2.742454,-2.91747 4.365499,-4.21992 5.709647,-4.58185 1.032897,-0.27814 2.669571,-1.08972 3.637055,-1.80351 0.967483,-0.71377 2.125894,-1.29778 2.574241,-1.29778 0.448347,0 2.506572,-0.81058 4.573837,-1.80129 4.544922,-2.1781 5.884344,-2.24602 7.611075,-0.386 1.732279,1.86604 2.455434,3.33688 3.526482,7.17263 0.488991,1.75122 1.218819,3.31058 1.621847,3.46522 0.806379,0.30945 0.765646,0.38868 2.191119,-4.26157 1.533551,-5.00283 3.907047,-6.87137 6.362071,-5.00856 0.767782,0.58257 1.254801,0.56642 3.087924,-0.10231 2.512946,-0.91677 9.072032,-0.94888 10.814932,-0.0528 1.66994,0.85846 3.97047,3.12132 3.97047,3.9055 0,0.75218 6.547332,7.3386 8.718121,8.77018 2.637836,1.73957 5.692029,5.66852 7.513509,9.66552 1.008525,2.21305 2.285074,4.65767 2.83678,5.43245 0.641822,0.90137 1.003101,2.25413 1.003101,3.756 0,1.87419 0.311175,2.70164 1.543962,4.10572 0.849177,0.96716 1.535637,2.30688 1.525457,2.97715 -0.0209,1.37475 -1.733208,3.62572 -3.421576,4.49791 -1.486476,0.7679 -13.252591,0.75469 -17.454733,-0.0196 -5.964686,-1.09901 -12.373991,0.74922 -19.025643,5.49575 -2.458004,1.75398 -3.527717,2.93851 -4.516982,5.00176 -2.66653,5.5614 0.522734,16.4355 0.913216,18.90379 2.169978,15.79297 4.116781,32.24696 11.609603,36.8163 0,0 -2.403333,0.84791 -4.592957,-0.11847 z M 48.225414,190.47895 c -0.186578,-0.30188 -0.585519,-0.54887 -0.886532,-0.54887 -0.341264,0 -0.30222,0.29529 0.103713,0.78441 0.705869,0.85052 1.33673,0.66071 0.782822,-0.23554 z m 9.222917,-10.9821 c 0.517156,-1.35085 1.029125,-2.36723 1.137705,-2.25866 0.108582,0.10853 -0.0632,0.86642 -0.381713,1.6841 -1.195134,3.06795 -1.907683,5.86123 -1.495174,5.86123 0.234864,0 1.25345,-1.36044 2.263525,-3.02321 1.010078,-1.66275 2.176181,-3.30511 2.591346,-3.64966 0.415161,-0.34454 -0.278695,0.94713 -1.541915,2.87041 -2.329946,3.54741 -3.176887,5.79895 -1.167147,3.10277 2.188736,-2.9363 5.369561,-6.46351 6.863691,-7.61115 0.861592,-0.6618 0.234301,0.2772 -1.438557,2.15338 -4.025094,4.51428 -7.714599,9.62573 -7.472417,10.35227 0.10937,0.3281 1.266217,-0.88677 2.57076,-2.69977 1.304542,-1.81298 3.608382,-4.45429 5.119639,-5.86959 l 2.747744,-2.57327 -2.102749,2.31594 c -1.15651,1.27377 -2.834354,3.12653 -3.728539,4.11723 -2.606383,2.88773 -1.881495,3.34889 1.251896,0.79644 3.749047,-3.05394 9.119188,-6.04499 10.145864,-5.65103 0.442654,0.16981 1.224182,0.0421 1.736727,-0.28429 0.842179,-0.53602 0.820415,-0.56958 -0.226067,-0.34858 -1.613157,0.3407 -1.444912,0.001 0.496944,-1.0031 2.481972,-1.28347 15.473592,-6.40243 15.692762,-6.18326 0.104772,0.10489 -2.887112,1.4023 -6.648636,2.88337 -6.602945,2.59987 -8.060235,3.33703 -7.568714,3.82855 0.12711,0.127 2.879438,-0.55587 6.116293,-1.51775 3.236851,-0.96184 5.976627,-1.65739 6.088393,-1.54562 0.111781,0.11182 -1.498033,0.69664 -3.577335,1.29977 -7.059279,2.04758 -10.213716,3.1763 -10.213716,3.65474 0,0.26669 1.305255,0.36728 2.959261,0.228 2.936601,-0.24724 2.931675,-0.24409 -0.643318,0.41351 -1.981419,0.36447 -5.074995,1.26831 -6.87461,2.00853 -1.799623,0.74023 -3.553157,1.23801 -3.896746,1.10614 -0.343586,-0.13192 -2.113494,1.14851 -3.933125,2.84525 -3.611755,3.36781 -3.553096,4.19197 0.09601,1.34898 1.257687,-0.97988 3.901132,-2.39577 5.87432,-3.14646 3.989639,-1.51784 5.454272,-1.58938 20.179674,-0.98562 2.34881,0.2424 4.505198,0.61309 8.123742,0.009 l 1.783351,-1.2154 c 1.88747,-1.88746 1.95561,-3.12633 0.259581,-4.71966 l -1.289913,-1.21181 -3.470637,1.11582 c -1.908853,0.61368 -4.512818,1.23455 -5.786587,1.3797 -2.037963,0.23222 -1.9453,0.17156 0.771981,-0.50538 1.698358,-0.42309 3.569163,-0.88082 4.157347,-1.01718 0.588176,-0.13642 1.688249,-0.82141 2.444606,-1.52237 1.557695,-1.44363 1.894323,-4.53416 0.675437,-6.2011 -0.676796,-0.92557 -0.762088,-0.91844 -2.600339,0.21766 -1.045326,0.64606 -2.014097,1.06115 -2.152827,0.92242 -0.138728,-0.1387 0.590886,-0.7497 1.621362,-1.35767 1.405114,-0.82904 1.783503,-1.32757 1.513299,-1.99376 -0.198162,-0.48859 -0.590857,-1.52519 -0.872657,-2.30362 -0.281799,-0.77841 -0.7166,-1.4153 -0.966227,-1.4153 -0.249628,0 -1.604657,0.86846 -3.011174,1.92996 -2.670485,2.01537 -7.770898,4.91786 -8.086797,4.60196 -0.100621,-0.10054 0.453576,-0.50285 1.231562,-0.89381 2.208005,-1.10957 6.954114,-4.16658 8.233688,-5.3034 1.335277,-1.18632 1.430342,-1.8241 0.468054,-3.14012 -0.647914,-0.88607 -0.890739,-0.7876 -3.98857,1.61756 -1.814258,1.40857 -5.730392,4.25809 -8.702519,6.33226 -2.972126,2.07419 -6.677636,4.82447 -8.234465,6.11175 -1.55683,1.28727 -2.367409,1.80402 -1.80129,1.14834 1.100316,-1.27441 10.991761,-8.81264 14.410317,-10.98205 4.839029,-3.07086 7.573726,-6.67828 5.628509,-7.42473 -0.481604,-0.18479 -1.366053,-0.0374 -1.965446,0.3275 -1.005225,0.61205 -0.9968,0.56252 0.10857,-0.63824 l 1.198351,-1.30177 -2.320389,-1.59646 c -2.761445,-1.89993 -3.592079,-1.98392 -4.337402,-0.43852 -0.423905,0.87898 -0.566861,0.9483 -0.593298,0.28771 -0.01906,-0.47864 0.196761,-1.01341 0.479822,-1.18836 1.143427,-0.70667 0.375604,-2.44666 -2.156776,-4.88755 -1.469286,-1.4162 -2.803934,-2.57492 -2.965886,-2.57492 -0.161954,0 -0.523068,-0.52109 -0.802484,-1.15797 -0.279417,-0.63689 -1.391676,-1.62117 -2.471683,-2.18729 l -1.963652,-1.02929 -1.298653,1.54395 c -0.799844,0.95092 -1.090369,1.12518 -0.756387,0.45366 0.577631,-1.16144 0.316428,-1.74028 -0.785264,-1.74028 -0.733245,0 -2.720736,3.63711 -3.796613,6.94781 -0.367943,1.13225 -0.761103,1.78458 -0.873687,1.44963 -0.11258,-0.33493 0.604964,-2.36139 1.594546,-4.50323 2.032041,-4.39807 1.816658,-4.68975 -2.258894,-3.05902 -1.925609,0.77044 -2.158835,0.77044 -3.010203,0 -1.324194,-1.1984 -1.483635,-1.08333 -1.873252,1.35207 -0.192471,1.20301 -1.357401,6.24019 -2.588756,11.19373 -1.231351,4.95355 -2.483809,11.40483 -2.783235,14.33618 -1.105924,10.82701 -0.307284,12.40147 1.212361,2.39008 0.811435,-5.34572 2.72798,-13.62367 2.828662,-12.21757 0.02553,0.35681 -0.398806,2.67276 -0.943022,5.14652 -1.98836,9.03831 -3.431033,20.97585 -2.597243,21.49116 0.186441,0.11512 0.744629,-2.27158 1.240415,-5.30401 0.495786,-3.03244 1.095519,-6.20829 1.332737,-7.05748 0.237226,-0.84918 0.698349,-2.89401 1.024728,-4.54403 0.326378,-1.65006 0.689741,-2.90376 0.807467,-2.78604 0.117715,0.11772 -0.346176,2.97152 -1.030899,6.34177 -0.684727,3.37022 -1.059187,6.24512 -0.832138,6.38859 0.227043,0.14354 -0.0107,1.88206 -0.528355,3.86347 -0.517644,1.98144 -0.929177,4.52897 -0.914525,5.66121 0.02167,1.67323 0.239372,1.1915 1.162968,-2.57328 0.624982,-2.54754 1.559454,-5.73713 2.07661,-7.08796 z m 7.996836,1.48979 c 0,-0.10677 0.405289,-0.51217 0.900646,-0.90067 0.816271,-0.64013 0.834474,-0.62194 0.19432,0.19433 -0.67233,0.85729 -1.094959,1.12993 -1.094959,0.70634 z m 18.945705,-1.18658 c 0.371513,-0.1486 0.815402,-0.13028 0.986421,0.0407 0.17102,0.17099 -0.132954,0.29266 -0.675483,0.27032 -0.599546,-0.0247 -0.721493,-0.14667 -0.310938,-0.31094 z m -28.168847,-1.4926 c 0.0247,-0.59954 0.146644,-0.7215 0.310931,-0.31094 0.148668,0.37154 0.130388,0.81541 -0.0406,0.98643 -0.171017,0.17098 -0.292654,-0.13287 -0.270307,-0.67549 z m 0.516001,-1.35902 c -0.12752,-1.13182 6.760301,-16.35365 7.399985,-16.35365 0.332976,0 -0.989875,3.00126 -2.53991,5.76254 -0.746321,1.32951 -1.433405,3.06647 -1.526855,3.8599 -0.09345,0.79344 -0.196319,1.59977 -0.228593,1.79184 -0.03227,0.19199 -0.393548,0.6841 -0.80283,1.09337 -0.409278,0.40929 -1.085175,1.52589 -1.501977,2.48139 -0.416808,0.95547 -0.776727,1.56954 -0.79982,1.36461 z m 7.163179,-1.94335 c 0.896748,-1.13223 1.746251,-2.0586 1.887781,-2.0586 0.141528,0 -0.476379,0.92637 -1.373128,2.0586 -0.89675,1.13224 -1.746251,2.05862 -1.887783,2.05862 -0.141529,0 0.476381,-0.92638 1.37313,-2.05862 z m -3.24628,-2.07257 c 0.794746,-1.42297 1.991253,-3.21782 2.658909,-3.98856 1.10895,-1.28017 1.143448,-1.29008 0.398929,-0.11477 -0.448242,0.70764 -1.532594,2.5025 -2.409662,3.98857 -2.035744,3.44926 -2.562627,3.5425 -0.648176,0.11476 z m 14.113273,1.66409 c 3.047793,-2.29239 6.102546,-3.77368 3.402887,-1.65012 -0.719702,0.56611 -1.533158,1.0293 -1.807676,1.0293 -0.27452,0 -0.787436,0.34739 -1.139814,0.77198 -0.35238,0.4246 -0.87516,0.77198 -1.16173,0.77198 -0.286575,0 0.0313,-0.41543 0.706333,-0.92314 z m 14.865711,-0.1063 c 0.424592,-0.27438 1.119374,-0.48616 1.543963,-0.47059 0.509023,0.0194 0.421369,0.17894 -0.257326,0.47059 -1.414833,0.60797 -2.227409,0.60797 -1.286637,0 z m -22.64478,-3.34525 c 0.664804,-0.70766 1.324529,-1.28663 1.466059,-1.28663 0.14153,0 -0.2866,0.57897 -0.951406,1.28663 -0.664805,0.70765 -1.324529,1.28663 -1.466058,1.28663 -0.141531,0 0.2866,-0.57898 0.951405,-1.28663 z m 5.918523,-2.31594 c 1.105598,-1.13224 2.125984,-2.05862 2.267514,-2.05862 0.141529,0 -0.64726,0.92638 -1.752862,2.05862 -1.105599,1.13223 -2.125984,2.0586 -2.267512,2.0586 -0.141529,0 0.64726,-0.92637 1.75286,-2.0586 z m -12.094372,0.51464 c 0.302977,-0.56611 0.666667,-1.02929 0.808196,-1.02929 0.141529,0 0.0093,0.46318 -0.293542,1.02929 -0.302977,0.56613 -0.666668,1.02932 -0.808199,1.02932 -0.141529,0 -0.0093,-0.46319 0.293545,-1.02932 z m 7.719812,-0.22227 c 0,-0.12209 0.752681,-0.74237 1.672626,-1.37802 l 1.672624,-1.15575 -1.247681,1.37803 c -1.11262,1.22884 -2.097569,1.77154 -2.097569,1.15574 z m -1.652555,-4.7956 c 1.411582,-1.6276 3.106656,-3.42244 3.766831,-3.98856 0.660172,-0.56613 -0.384438,0.76553 -2.321353,2.95926 -1.936915,2.19372 -3.631992,3.98856 -3.766831,3.98856 -0.13484,0 0.909763,-1.33166 2.321353,-2.95926 z m -7.0712,1.67263 c -0.01365,-0.56611 0.415437,-2.18729 0.953559,-3.60257 1.374065,-3.61388 6.102751,-13.63834 6.433412,-13.63834 0.318802,0 0.145807,0.40908 -2.502824,5.91853 -1.088639,2.26447 -2.627332,5.96998 -3.419323,8.23445 -0.791985,2.26448 -1.451159,3.65405 -1.464824,3.08793 z m 15.92891,0.61095 c 0,-0.0885 0.752681,-0.84126 1.672627,-1.67263 l 1.672626,-1.51159 -1.511584,1.67263 c -1.40901,1.55912 -1.833669,1.90917 -1.833669,1.51159 z m -2.655458,-2.15492 c 2.573608,-3.36586 4.161204,-5.17185 4.180915,-4.75608 0.01847,0.38966 -1.500565,2.24597 -4.283534,5.23455 -1.420542,1.52548 -1.416991,1.50894 0.102619,-0.47847 z m -14.827017,-0.77198 c 0,-0.42457 0.224498,-1.11936 0.49889,-1.54395 0.443463,-0.68621 0.49889,-0.68621 0.49889,0 0,0.42459 -0.224495,1.11938 -0.49889,1.54395 -0.443461,0.68621 -0.49889,0.68621 -0.49889,0 z m 21.857036,-1.0293 c 0.512335,-0.56612 1.04731,-1.02933 1.188841,-1.02933 0.14153,0 -0.161855,0.46321 -0.674186,1.02933 -0.512333,0.56611 -1.047311,1.0293 -1.188841,1.0293 -0.141529,0 0.161857,-0.46319 0.674186,-1.0293 z m 3.60258,-2.57328 c 0.512332,-0.56611 1.047311,-1.0293 1.18884,-1.0293 0.14153,0 -0.161857,0.46319 -0.674187,1.0293 -0.512333,0.56613 -1.047309,1.02931 -1.18884,1.02931 -0.141529,0 0.161855,-0.46318 0.674187,-1.02931 z m -18.270221,-2.05861 c 0.577626,-1.13223 1.166026,-2.05861 1.307555,-2.05861 0.141528,0 -0.215274,0.92638 -0.792902,2.05861 -0.577627,1.13224 -1.166026,2.05861 -1.307556,2.05861 -0.14153,0 0.215276,-0.92637 0.792903,-2.05861 z m 1.543962,1.54396 c 0,-0.28306 0.245264,-0.51465 0.54503,-0.51465 0.299764,0 0.401892,0.23159 0.226952,0.51465 -0.174948,0.28307 -0.420205,0.51465 -0.545029,0.51465 -0.124816,0 -0.226953,-0.23158 -0.226953,-0.51465 z m -10.252451,-1.32953 c 0.02471,-0.59953 0.146646,-0.72149 0.310934,-0.31094 0.148668,0.37154 0.130388,0.81542 -0.04062,0.98643 -0.171017,0.17099 -0.292654,-0.13287 -0.270307,-0.67549 z m 17.811403,-2.00922 c 1.362243,-1.55326 2.674579,-2.82702 2.916312,-2.83059 0.241728,-0.004 -0.787298,1.26725 -2.286722,2.8241 -1.499427,1.55681 -2.811765,2.83059 -2.916312,2.83059 -0.104548,0 0.924484,-1.27084 2.286722,-2.8241 z m -17.296748,-0.56404 c 0.0247,-0.59955 0.146643,-0.72149 0.310934,-0.31094 0.148667,0.37152 0.130387,0.8154 -0.04062,0.98642 -0.171019,0.17097 -0.292653,-0.13301 -0.270308,-0.67548 z m 9.737796,-0.6987 c 0,-0.26638 0.228945,-0.62581 0.508762,-0.79874 0.291735,-0.18031 0.378012,0.0262 0.202262,0.4843 -0.342136,0.89159 -0.711024,1.05471 -0.711024,0.31444 z m -9.182516,-1.57436 c 0,-0.70764 0.116825,-0.99714 0.259588,-0.64331 0.142773,0.35382 0.142773,0.93281 0,1.28663 -0.142776,0.35382 -0.259588,0.0643 -0.259588,-0.64332 z m 13.299747,0.54503 c 0,-0.26635 0.221024,-0.62088 0.491167,-0.78785 0.270136,-0.16688 1.118157,-1.45555 1.884484,-2.86354 0.766331,-1.408 1.4967,-2.4566 1.623048,-2.33028 0.240931,0.24093 -3.396908,6.46595 -3.778632,6.46595 -0.121033,0 -0.220067,-0.21793 -0.220067,-0.48428 z m -0.804521,-5.39856 c 1.912933,-4.19767 2.823449,-5.89886 2.847489,-5.32022 0.02492,0.59922 -4.005168,9.14444 -4.312663,9.14444 -0.152675,0 0.506657,-1.7209 1.465174,-3.82422 z m -11.978236,2.79492 c -0.02126,-0.42457 0.274873,-2.16154 0.658104,-3.85992 0.383237,-1.69834 0.698288,-2.50891 0.70012,-1.80127 0.0036,1.44371 -1.297735,6.86836 -1.358224,5.66119 z M 46.95744,184.42591 c -1.167106,-2.43231 -2.000909,-4.54348 -1.852897,-4.69148 0.148007,-0.14803 0.269114,0.001 0.269114,0.33131 0,0.33022 0.2127,0.60042 0.472668,0.60042 0.25997,0 -0.562943,-2.95283 -1.828693,-6.56184 -2.142686,-6.1094 -4.876657,-16.27183 -4.77559,-17.75133 0.06493,-0.9505 0.936535,2.01257 1.550489,5.27095 0.908578,4.82208 6.278042,20.07152 7.067353,20.07152 0.459971,0 0.592407,-0.31118 0.374315,-0.87952 -0.489589,-1.27584 -3.764217,-20.95621 -4.092518,-24.59584 -0.1532,-1.69838 0.508867,1.31236 1.471246,6.69049 3.847889,21.50341 4.092289,22.62469 4.967855,22.79216 0.734952,0.14044 0.866646,-0.97507 1.123223,-9.51518 0.219689,-7.31239 0.553922,-10.74245 1.368943,-14.04895 2.273079,-9.22178 4.180773,-18.18143 4.03373,-18.94479 -0.454883,-2.36158 -3.577963,4.70219 -5.937905,13.43033 -0.947837,3.50554 -1.162469,13.11888 -0.519531,23.27002 0.226797,3.58084 0.193251,4.90471 -0.09126,3.60257 -0.541687,-2.47901 -1.580381,-15.31293 -1.585153,-19.58597 -0.0019,-1.68234 0.377791,-5.04835 0.843707,-7.48002 l 0.847121,-4.42122 -1.907307,-4.92248 c -1.912801,-4.93668 -3.084017,-6.63102 -4.283327,-6.19656 -0.353824,0.12823 -0.643317,-0.0175 -0.643317,-0.32448 0,-0.30663 -0.379376,-0.55755 -0.843054,-0.55755 -0.730038,0 -0.796902,0.45047 -0.49878,3.3603 0.189341,1.84816 0.486192,4.10621 0.65965,5.01787 0.173449,0.91168 0.17588,1.53208 0.0054,1.37867 -0.170492,-0.15347 -0.564107,-2.00617 -0.874714,-4.11725 -0.814442,-5.53541 -0.692674,-5.37574 -3.077501,-4.0354 -2.27715,1.27983 -2.299206,1.35406 -1.504114,5.06144 0.306567,1.42947 0.456856,2.88833 0.333975,3.24192 -0.122877,0.3536 -0.513643,-1.05522 -0.868361,-3.1307 -0.635218,-3.71666 -0.665478,-3.76846 -2.006602,-3.43379 -0.748912,0.18692 -2.136742,0.81765 -3.084067,1.4017 -1.445389,0.89115 -1.677328,1.28736 -1.442106,2.46345 0.39274,1.96372 6.147393,15.3036 8.593091,19.91971 1.11865,2.11136 2.027212,4.10867 2.019027,4.43841 -0.02982,1.20173 -7.71647,-13.94946 -9.545378,-18.81496 -1.03458,-2.75229 -2.190575,-5.26107 -2.568877,-5.57505 -1.004655,-0.83378 -2.332889,-0.2313 -4.593158,2.08342 l -2.001885,2.0501 0.819387,1.71827 c 0.450664,0.94506 2.071872,3.20594 3.602685,5.02418 1.530812,1.81822 4.270962,5.50602 6.089225,8.19508 1.818261,2.68907 5.316331,7.62055 7.773489,10.95883 2.45716,3.3383 5.240284,7.56156 6.184719,9.38504 2.493313,4.814 2.45714,3.03938 -0.04431,-2.1738 z m -2.891581,-5.8526 c -0.18658,-0.30189 -0.228859,-0.65928 -0.09395,-0.7942 0.134922,-0.13492 0.382421,0.11206 0.550036,0.54891 0.348003,0.90688 0.05139,1.06639 -0.456086,0.24529 z m 2.621571,-20.16592 c -0.108841,-0.35383 -0.326943,-2.72767 -0.484681,-5.27522 -0.157732,-2.54754 -0.409069,-5.44248 -0.558515,-6.43318 -0.270979,-1.79637 -0.270303,-1.79708 0.247066,-0.25732 0.480349,1.42957 1.499934,12.60902 1.149965,12.60902 -0.08579,0 -0.244999,-0.28949 -0.353835,-0.6433 z m -8.212896,-5.0866 c -0.464766,-2.9065 -0.08561,-3.0325 0.56534,-0.1879 0.291384,1.27335 0.359925,2.31518 0.152305,2.31518 -0.207613,0 -0.530557,-0.95728 -0.717651,-2.12732 z m 4.921768,-1.47525 c 0,-0.70764 0.116801,-0.99716 0.259583,-0.64333 0.142774,0.35383 0.142774,0.93282 0,1.28664 -0.142774,0.35382 -0.259583,0.0643 -0.259583,-0.64331 z m 4.853444,30.49584 c -0.562205,-0.5622 -0.947721,0.33188 -0.54408,1.26185 0.382736,0.88179 0.410482,0.88099 0.623729,-0.0175 0.122741,-0.51751 0.08691,-1.07719 -0.07965,-1.24374 z m 25.680825,-1.66484 c 0.138671,-0.22438 -0.208762,-0.52849 -0.772092,-0.67581 -0.563326,-0.14723 -0.735818,0.19882 -0.735818,0.19882 l -0.913187,0.38803 c 0,0 -0.835823,0.53697 -1.504071,1.09715 l -1.214985,1.01852 2.444006,-0.80938 c 1.344204,-0.44514 2.557471,-0.99293 2.696147,-1.21733 z m -35.275091,1.66239 -1.773584,-1.92995 1.929952,1.77358 c 1.79636,1.6508 2.166585,2.08633 1.773586,2.08633 -0.08599,0 -0.954484,-0.86848 -1.929954,-1.92996 z m -8.245032,0.16864 c -0.449282,-0.68568 -0.939886,-0.7106 -5.084426,-2.70573 -3.284597,-2.26222 -4.87146,-4.00976 -0.770498,-1.19694 1.300019,0.89167 5.16861,2.44269 7.072808,3.53572 1.236585,0.70981 1.103798,1.12989 0.743476,1.37981 -0.33547,0 -0.309367,0.0403 -1.96136,-1.01286 z m 3.126197,-4.98014 -2.830598,-2.61297 2.95926,2.42382 c 2.597253,2.1273 3.304311,2.82865 2.830597,2.80776 -0.07077,-0.004 -1.402431,-1.18149 -2.959259,-2.61861 z m -7.10053,-3.7724 c -2.390514,-1.69025 -2.726946,-2.17335 -0.708379,-1.01719 0.941708,0.53937 1.954343,1.27018 2.250297,1.624 0.760586,0.9093 0.403636,0.76883 -1.541918,-0.60681 z m 2.665627,0.0922 c -0.559871,-0.63688 -2.164896,-2.16364 -3.566726,-3.3928 -2.662439,-2.33447 -1.477613,-1.58206 2.196332,1.39474 1.17649,0.95327 2.26192,2.05333 2.412069,2.44462 0.382639,0.99713 0.133596,0.89037 -1.041675,-0.44656 z m 2.590696,-2.2124 c -1.108636,-1.00454 -1.552511,-1.60479 -0.986391,-1.3339 1.011258,0.48388 3.774967,3.1603 3.263381,3.1603 -0.143708,0 -1.168356,-0.82189 -2.27699,-1.8264 z m -10.882833,-1.19645 c -2.895539,-1.52366 -4.081329,-2.40463 -2.439571,-1.81249 1.297282,0.46791 5.388183,2.8086 5.388183,3.08296 0,0.28711 0.06292,0.31422 -2.948612,-1.27047 z m 6.7843,-3.28166 -2.0344,-2.18727 2.187278,2.0344 c 2.034151,1.89196 2.423778,2.34015 2.034404,2.34015 -0.0841,0 -1.068361,-0.98426 -2.187282,-2.18728 z m -12.198819,0.34895 c -1.924005,-1.04379 -1.806891,-1.47853 0.128667,-0.47761 0.849179,0.43913 1.543962,0.90827 1.543962,1.04254 0,0.33116 -0.05529,0.3125 -1.672627,-0.56493 z m 6.238866,-0.0916 c -0.640162,-0.81628 -0.621961,-0.83448 0.194301,-0.19433 0.495354,0.3885 0.900645,0.79378 0.900645,0.90065 0,0.42358 -0.422627,0.15094 -1.094956,-0.70632 z m -2.299194,-1.80131 -0.98041,-1.15797 1.15797,0.98042 c 1.088209,0.92135 1.392265,1.33554 0.98041,1.33554 -0.09767,0 -0.618745,-0.52108 -1.15797,-1.15799 z m -2.332752,-1.80129 c -0.640162,-0.81628 -0.621959,-0.83448 0.194319,-0.19433 0.495356,0.38849 0.900646,0.79378 0.900646,0.90064 0,0.42359 -0.422626,0.15095 -1.094954,-0.70633 z m 5.951794,-1.28664 -1.511585,-1.67262 1.672624,1.51157 c 0.919943,0.83138 1.672626,1.58406 1.672626,1.67265 0,0.3976 -0.424655,0.0476 -1.833665,-1.5116 z"
       id="path826"
       inkscape:connector-curvature="0"
       sodipodi:nodetypes="cccsccccccccscscccccccccccsscccsccsscscscccscccsccccccccccscccccscccccccccccccccccccccccscsccccsccccccccccccccccscccccccccccccccccccscccccsccccccccscccsccccccccccccccccccccccccccccccccccccsccccccccscsccccccccsccccsccscscscccscccsccsscccscccscsccscscscccsccccsccscscsccssccccccccsccscccsscssscsscscssccscccccccsssscsccscsscssccscccsscccccscccccccccccccccsccccccccscsccssccscssccccccccccccccccsccccssccccccccsccccccccscccsccccscccsccccscccccscccscccccscc" />
  </g>
</svg>
