<?xml version="1.0" encoding="UTF-8" standalone="no"?>
<!-- Created with Inkscape (http://www.inkscape.org/) -->

<svg
   xmlns:dc="http://purl.org/dc/elements/1.1/"
   xmlns:cc="http://creativecommons.org/ns#"
   xmlns:rdf="http://www.w3.org/1999/02/22-rdf-syntax-ns#"
   xmlns:svg="http://www.w3.org/2000/svg"
   xmlns="http://www.w3.org/2000/svg"
   xmlns:sodipodi="http://sodipodi.sourceforge.net/DTD/sodipodi-0.dtd"
   xmlns:inkscape="http://www.inkscape.org/namespaces/inkscape"
   version="1.1"
   id="svg815"
   width="269.69452"
   height="268.26889"
   viewBox="0 0 269.69452 268.26889"
   sodipodi:docname="logoFarbeInvertiert.svg"
   inkscape:version="0.92.3 (2405546, 2018-03-11)">
  <metadata
     id="metadata821">
    <rdf:RDF>
      <cc:Work
         rdf:about="">
        <dc:format>image/svg+xml</dc:format>
        <dc:type
           rdf:resource="http://purl.org/dc/dcmitype/StillImage" />
        <dc:title></dc:title>
      </cc:Work>
    </rdf:RDF>
  </metadata>
  <defs
     id="defs819" />
  <sodipodi:namedview
     pagecolor="#ffffff"
     bordercolor="#666666"
     borderopacity="1"
     objecttolerance="10"
     gridtolerance="10"
     guidetolerance="10"
     inkscape:pageopacity="0"
     inkscape:pageshadow="2"
     inkscape:window-width="1920"
     inkscape:window-height="1046"
     id="namedview817"
     showgrid="false"
     inkscape:zoom="2.3357144"
     inkscape:cx="107.86666"
     inkscape:cy="128.10893"
     inkscape:window-x="-11"
     inkscape:window-y="-11"
     inkscape:window-maximized="1"
     inkscape:current-layer="g845"
     inkscape:pagecheckerboard="true" />
  <g
     transform="matrix(2.9599613,0,0,2.9599613,373.12227,-381.45066)"
     id="layer1"
     inkscape:label="Ebene 1">
    <g
       inkscape:label="Ebene 1"
       id="layer1-7"
       transform="translate(-121.13581,-13.068908)">
      <g
         id="g845">
        <path
           transform="matrix(0.33784225,0,0,0.33784225,-4.920659,141.93906)"
           sodipodi:nodetypes="csscscccccscccccccssscscsscsccscsccsssssccccssscssscsccscsscscscscscccsssccssscsccsccccccccscsccccccccccccccsccssscsscs"
           inkscape:connector-curvature="0"
           id="path825"
           d="m 119.71994,267.8646 c -25.166867,-3.45388 -47.943865,-13.56193 -67.999995,-30.17726 -8.39662,-6.9561 -8.89002,-7.1944 -3,-1.44891 2.93333,2.86135 4.73333,4.86399 4,4.4503 -3.18202,-1.79504 -14.2045,-13.21014 -11.95407,-12.37987 0.77479,0.28585 0.0619,-0.8494 -1.79049,-2.85112 -1.69284,-1.82935 -4.84284,-5.7145 -7,-8.63368 -2.15716,-2.91917 -4.46997,-6.04973 -5.13958,-6.9568 l -1.21748,-1.64922 1.05081,1.80988 c 1.51335,2.60655 1.28609,3.2152 -0.31992,0.85678 -2.06406,-3.03106 -4.15136,-7.19534 -3.36209,-6.70755 0.3843,0.23751 -0.41842,-1.65259 -1.78381,-4.20023 -1.3654,-2.54764 -2.68383,-4.50767 -2.92985,-4.35562 -0.50234,0.31047 -5.06,-11.1009 -7.08393,-17.73659 -0.72694,-2.38334 -2.2359601,-8.83334 -3.3533801,-14.33334 -1.11743,-5.5 -2.18499,-25.73471 -2.37237,-26.65137 -0.18737,-0.91667 -0.20786,15.22293 -0.0455,17.55114 0.16233,2.3282 1.003413,8.31221 2.29842,13.19288 9.0525261,34.11749 2.20596,16.01863 -1.38627,1.79497 -1.06908,-4.23309 -1.94379,-9.03223 -1.94379,-10.66475 0,-2.04769 -0.2351,-2.82292 -0.75808,-2.4997 -0.71307,0.4407 -0.49518,6.76007 0.43481,12.61017 l 0.31794,2 -0.66574,-2 c -2.03944,-6.12684 -3.51490999,-17.84186 -3.69443999,-29.33334 -0.1534,-9.81856 0.562302,-19.16503 1.04644199,-14.80122 0.32545,2.93333 0.503908,17.06789 1.181488,21.46789 l 1.23197,8 -0.0424,-16.33333 c -0.0459,-17.69847 0.80507,-25.42325 4.02462,-36.53327 2.27296,-7.843501 5.9792101,-15.695021 7.7822401,-16.486311 0.82801,-0.36338 2.65042,-2.84367 4.15663,-5.65713 1.47519,-2.755522 3.35905,-6.10528 4.18637,-7.4439 1.23489,-1.99811 1.31355,-2.405877 0.43932,-2.27757 -0.58569,0.08596 -4.494375,5.210106 -5.415681,6.284882 -3.956068,4.615068 5.781835,-7.93208 12.123035,-18.021501 1.774327,-2.823114 4.685736,-6.988032 7.676489,-10.520039 5.090316,-6.011539 9.69267,-10.476745 4.103407,-5.454636 -5.1211,4.601452 -21.08998,22.537307 -27.61017,35.193292 -5.1811101,10.056772 -6.8220801,12.315492 -5.1781501,7.127512 1.2829901,-4.04888 9.6885601,-19.94841 12.9977401,-24.585803 4.76575,-6.678607 11.79447,-14.7167 14.72484,-16.839453 1.47601,-1.069213 3.86572,-3.313066 5.31048,-4.986333 6.23746,-7.224038 19.2084,-15.837833 31.61661,-20.996096 3.855618,-1.602833 12.260208,-4.710044 18.676878,-6.9049138 10.942157,-3.74285 12.225567,-4.0305 20.666667,-4.631978 4.95,-0.352718 10.34646,-0.949991 11.99212,-1.327274 5.40736,-1.239679 10.85867,-1.412826 21.67454,-0.688438 12.5449,0.840188 21.01618,2.474696 32.00001,6.17431 11.26892,3.7956398 22.49723,9.3695748 33.18092,16.4715968 5.0495,3.356679 9.3995,6.112006 9.66666,6.122948 0.8764,0.03589 5.84538,4.863579 11.88238,11.544511 3.26244,3.61042 11.98209,14.454194 12.7168,14.846981 0.7347,0.39278 -6.06343,-9.035827 -8.44676,-11.702181 -1.07605,-1.203826 -4.93774,-6.825411 -9.26681,-11.241768 -5.25937,-5.365402 -16.66513,-13.990029 -17.16793,-14.62199 -2.03226,-2.554317 12.35204,7.050404 20.06349,14.009614 4.74272,4.280071 8.70342,10.255122 10.60915,12.418692 10.46084,11.876121 19.73915,30.897625 22.70813,43.059575 2.44854,8.76268 3.69265,14.583231 4.15034,21.029061 0.47012,6.62091 0.11053,13.90154 -0.62578,25.70795 -0.12768,28.79332 -10.62745,56.58644 -27.23225,79.01122 -6.00582,8.11086 -18.4158,20.49883 -27.23834,27.19004 -7.12912,5.40687 -17.18842,12.06173 -18.2322,12.06173 -0.24949,0 -4.62573,1.64241 -9.72498,3.6498 -18.46298,7.26823 -27.45755,9.0322 -47.70949,9.35656 -8.06667,0.12919 -16.61667,-0.0327 -19,-0.3598 z M 26.386605,65.218042 c 0.39247,-0.733333 0.56358,-1.333333 0.38025,-1.333333 -0.18333,0 -0.65444,0.6 -1.04691,1.333333 -0.39247,0.733334 -0.56358,1.333334 -0.38025,1.333334 0.18334,0 0.65445,-0.6 1.04691,-1.333334 z M 246.47234,218.56973 c -11.09454,11.85622 -27.94726,25.52389 -29.05061,23.96481 -0.12659,-0.17888 22.3043,-21.28359 26.19101,-26.37167 1.68408,-2.20462 4.27012,-4.80804 7.70446,-11.23852 4.66158,-8.72839 10.121,-21.44745 9.88523,-21.29506 2.06683,-1.45933 -1.13261,7.45314 -4.79591,16.31831 -2.96634,7.17855 -8.03153,15.74979 -9.93418,18.62213 z M 70.208025,253.52734 c -1.36844,-0.92989 -2.48808,-1.84685 -2.48808,-2.0377 0,-0.49444 3.96482,1.89712 4.79955,2.89506 1.03595,1.23851 0.45671,1.02366 -2.31147,-0.85736 z m -7.77185,-1.83678 c -1.62273,-0.80989 -3.42273,-2.20832 -4,-3.10762 -0.87318,-1.3603 -0.32131,-1.14689 3.28377,1.26988 5.15868,3.45826 5.04864,3.3724 4.27778,3.33774 -0.33612,-0.0151 -1.93881,-0.69012 -3.56155,-1.5 z m -37.74556,-36.14007 c -2.79142,-4.36369 -11.230919,-21.49709 -11.854159,-23.84927 -0.24288,-0.91666 4.627519,8.48349 6.898549,12.51682 4.95561,11.33245 14.546828,20.13761 14.074938,20.13761 -0.19317,0 -7.828978,-6.78801 -9.119328,-8.80516 z m -13.55352,-22.45266 c -1.9917101,-4.10237 -6.4471601,-18.40534 -5.9029001,-18.9496 0.14967,-0.14966 0.65024,1.00482 1.11238,2.56551 0.46214,1.5607 2.32677,6.69607 4.1436201,11.41193 1.81686,4.71586 3.1659,8.71178 2.99787,8.8798 -0.16802,0.16802 -1.22596,-1.59041 -2.35097,-3.90764 z M 4.4392349,172.16249 c 0.032,-0.77664 0.18997,-0.9346 0.40278,-0.40278 0.19258,0.48124 0.1689,1.05625 -0.0526,1.27778 -0.22153,0.22152 -0.37909,-0.17223 -0.35015,-0.875 z M 80.269503,11.90437 c 4.07042,-1.892564 14.85117,-5.4416368 15.68518,-5.1636358 1.02068,0.340228 -13.4444,5.8921218 -16.21304,6.2227858 l -2.35504,0.281266 z M 105.81764,3.5995402 c 0.83774,-0.905283 7.37237,-2.283063 14.62886,-3.08438796 9.25582,-1.022108 31.76576,-0.435598 37.9401,0.98855296 l 4.33334,0.99951 -4,-0.319106 c -16.54138,-1.31960696 -30.98191,-0.895904 -50,1.467065 -1.83334,0.227788 -3.13937,0.204553 -2.9023,-0.05163 z"
           style="fill:#ffffff;stroke-width:0.66666669;fill-opacity:1" />
        <path
           sodipodi:nodetypes="cccsccccccccscscccccccccccsscccsccsscscscccscccscccccccccccccccscccccccccccccccccccccccscsccccsccccccccccccccccscccccccccccccccccccscccccsccccccccscccsccccccccccccccccccccccccccccccccccccsccccccccccsccccccccscccssccscscscccsccssccsccccscscscsscscscscccccccccccscccscccscccccccccccscccssccsscsscssssccsccccsccscsscsccscsscssccscccsscccccscccccccccccccccsccccccccsccccsscsscsscccccccccsccccccsscccscccccccccsccccccccscccscsccscccsccccscscccscccscscccscccsc"
           inkscape:connector-curvature="0"
           id="path826"
           d="m 45.775084,232.41786 c 0.228244,-0.946 -1.708053,-15.41036 -3.49882,-21.1159 -1.898816,-5.79655 -3.571802,-7.92877 -7.550355,-9.68867 -2.115488,-0.93579 -7.63038,-4.89117 -7.63038,-5.47263 0,-0.48551 5.010622,2.02371 7.605437,3.80863 2.304332,1.58509 2.862887,1.44574 1.231053,-0.30714 -0.634319,-0.68139 -0.931674,-1.11232 -0.660794,-0.95767 0.632022,0.36085 0.623757,-0.54662 -0.01249,-1.37592 -0.705831,-0.91994 -4.182131,-4.98707 -5.996116,-7.01519 -0.866819,-0.96915 -1.346616,-1.62586 -1.066216,-1.45932 0.713861,0.42397 7.410155,8.26712 8.001301,9.37169 0.279714,0.52264 0.55319,0.70714 0.644068,0.43453 0.238225,-0.71469 -1.623015,-3.67428 -6.019266,-9.57133 -2.18097,-2.92553 -4.784331,-6.47161 -5.785246,-7.8802 -1.000914,-1.4086 -3.030587,-3.86523 -4.510384,-5.45922 l -2.690534,-2.89816 -0.999592,0.79218 c -0.549777,0.43571 -1.747865,1.1822 -2.662415,1.6589 -1.110191,0.57866 -1.594647,1.41771 -1.765984,2.11359 -0.141143,0.57324 -0.825236,1.3863 -1.33264,2.05687 -1.051574,1.35131 -1.7557962,2.63825 -0.174271,2.64741 1.735182,1.05328 -0.573993,0.4148 -0.9681148,0.66995 -0.4810236,0.31135 -3.7280181,3.12427 -1.6394237,5.13298 0.7975403,1.15276 1.1484977,1.42911 4.4802165,2.37079 2.210407,0.86933 4.870667,0.51525 5.513381,1.01277 0.662024,0.51248 1.598268,0.77862 1.124582,0.55052 -0.45987,-0.22145 -6.316936,-0.17885 -9.8486319,-1.50317 -1.1670267,-0.43762 -1.2702186,-1.03582 -1.8027306,-1.68592 -2.1863322,-2.66911 0.8986081,-7.43976 2.3059905,-9.55555 0.602565,-0.90588 1.326718,-2.10654 1.609228,-2.66818 0.282513,-0.56159 1.328893,-1.4172 2.325291,-1.9013 1.060543,-0.51524 3.027825,-2.17395 4.745077,-4.00078 2.099573,-2.23356 3.342146,-3.23071 4.371198,-3.50778 0.790768,-0.21294 2.043774,-0.83429 2.784462,-1.38074 0.740687,-0.54646 1.627544,-0.99356 1.970791,-0.99356 0.343247,0 1.918985,-0.62056 3.501645,-1.37903 3.479505,-1.66752 4.504942,-1.71952 5.826896,-0.29552 1.326199,1.42861 1.879832,2.55465 2.699807,5.49123 0.374362,1.3407 0.933104,2.53452 1.241656,2.65292 0.617348,0.2369 0.586163,0.29755 1.677478,-3.26258 1.174058,-3.83009 2.991163,-5.2606 4.870682,-3.83447 0.587803,0.44599 0.960652,0.43364 2.364058,-0.0784 1.923864,-0.70186 6.945377,-0.72645 8.279708,-0.0405 1.278475,0.65721 3.039717,2.38962 3.039717,2.98997 0,0.57587 5.012515,5.61831 6.67443,6.71428 2.019478,1.33178 4.357711,4.33971 5.752201,7.39974 0.772108,1.69428 1.749409,3.56584 2.171786,4.15899 0.491366,0.69008 0.767955,1.72572 0.767955,2.87553 0,1.43485 0.23823,2.06832 1.182028,3.14326 0.650115,0.74044 1.175655,1.76611 1.167861,2.27925 -0.016,1.05249 -1.326911,2.77578 -2.619494,3.4435 -1.138018,0.58791 -10.145934,0.57779 -13.363015,-0.015 -4.566451,-0.84139 -9.473295,0.57357 -14.565675,4.20744 -1.881802,1.3428 -2.700753,2.24966 -3.458116,3.82926 -2.041446,4.2577 0.400194,12.5827 0.69914,14.47238 0.60243,4.38445 1.182393,8.7907 1.950502,12.85024 0,0 -1.447421,0.18194 -1.958922,0.17503 z M 38.73501,201.30941 c -0.14284,-0.23112 -0.448261,-0.42021 -0.678713,-0.42021 -0.261264,0 -0.231374,0.22606 0.0794,0.60053 0.540402,0.65113 1.023375,0.50583 0.599313,-0.18032 z m 7.060892,-8.40771 c 0.395925,-1.03418 0.787878,-1.81229 0.871006,-1.72919 0.08312,0.0831 -0.04837,0.66332 -0.292232,1.28932 -0.914973,2.34877 -1.460486,4.48727 -1.144678,4.48727 0.179809,0 0.959619,-1.04154 1.732913,-2.31453 0.773297,-1.27297 1.666043,-2.53034 1.983886,-2.79411 0.317837,-0.26378 -0.213364,0.7251 -1.180462,2.19753 -1.783763,2.71583 -2.432165,4.43957 -0.893544,2.37543 1.675653,-2.24798 4.110832,-4.94835 5.254711,-5.82696 0.65962,-0.50667 0.179376,0.21222 -1.101332,1.6486 -3.081536,3.45604 -5.906152,7.36925 -5.720742,7.9255 0.08374,0.25119 0.969392,-0.67889 1.968125,-2.0669 0.998734,-1.38799 2.762511,-3.41013 3.919502,-4.49365 l 2.103619,-1.97005 -1.609825,1.77305 c -0.885402,0.97516 -2.169927,2.39361 -2.854499,3.15208 -1.995398,2.21078 -1.440436,2.56384 0.958428,0.60974 2.870199,-2.33806 6.981479,-4.62794 7.767483,-4.32634 0.338887,0.13 0.937211,0.0322 1.329605,-0.21766 0.644757,-0.41035 0.628095,-0.43604 -0.173072,-0.26686 -1.235003,0.26086 -1.106198,7.7e-4 0.38045,-0.76794 1.900152,-0.9826 11.846292,-4.9016 12.014085,-4.7338 0.08021,0.0804 -2.21032,1.07359 -5.09007,2.20747 -5.055091,1.9904 -6.170766,2.55475 -5.794467,2.93105 0.09731,0.0973 2.204444,-0.42555 4.682518,-1.16195 2.478074,-0.73638 4.575594,-1.26888 4.661162,-1.1833 0.08557,0.0857 -1.146867,0.53333 -2.738743,0.99506 -5.40445,1.56761 -7.819427,2.43176 -7.819427,2.79801 0,0.20418 0.999279,0.2812 2.265555,0.17456 2.248205,-0.18928 2.244432,-0.18687 -0.492514,0.31657 -1.516936,0.27904 -3.885321,0.97101 -5.263072,1.53771 -1.377757,0.5667 -2.72023,0.94779 -2.983275,0.84683 -0.263043,-0.10106 -1.618052,0.87928 -3.011125,2.17827 -2.765092,2.57834 -2.720185,3.20928 0.07351,1.03276 0.962863,-0.75019 2.986635,-1.83415 4.497271,-2.40888 3.054391,-1.16201 4.175688,-1.21679 15.449178,-0.75457 1.798204,0.18558 3.449095,0.46938 6.219384,0.006 l 1.365301,-0.93049 c 1.445009,-1.44501 1.497178,-2.39346 0.198729,-3.61328 l -0.987532,-0.92774 -2.657055,0.85426 c -1.461381,0.4698 -3.454929,0.94515 -4.430101,1.05627 -1.560226,0.17777 -1.489286,0.13133 0.591012,-0.38692 1.300233,-0.3239 2.732485,-0.67432 3.182787,-0.77873 0.450297,-0.10446 1.292493,-0.62886 1.871544,-1.1655 1.192542,-1.10521 1.45026,-3.47126 0.517103,-4.74746 -0.518142,-0.70858 -0.58344,-0.7031 -1.99077,0.16666 -0.800282,0.4946 -1.541955,0.81239 -1.648164,0.70618 -0.10621,-0.10623 0.452372,-0.57397 1.241282,-1.03941 1.075731,-0.6347 1.365418,-1.01635 1.158554,-1.52637 -0.15171,-0.37405 -0.452348,-1.16767 -0.66809,-1.76361 -0.21574,-0.59594 -0.548614,-1.08354 -0.739725,-1.08354 -0.19111,0 -1.228493,0.66488 -2.305299,1.47754 -2.044472,1.54293 -5.949252,3.76504 -6.191098,3.5232 -0.07704,-0.0771 0.34725,-0.38498 0.942861,-0.68431 1.690406,-0.84947 5.323939,-3.18984 6.303556,-4.06018 1.022263,-0.90821 1.095044,-1.39649 0.358334,-2.40401 -0.49603,-0.67837 -0.681935,-0.60298 -3.053575,1.23836 -1.388961,1.0784 -4.387079,3.25992 -6.662485,4.84788 -2.275403,1.58797 -5.112272,3.6935 -6.304152,4.67902 -1.19188,0.98551 -1.812443,1.38114 -1.379033,0.87915 0.842381,-0.97567 8.415085,-6.74679 11.032269,-8.40765 3.70467,-2.35099 5.798301,-5.11275 4.309078,-5.68422 -0.368704,-0.14149 -1.045823,-0.0288 -1.504707,0.25072 -0.769582,0.46858 -0.763131,0.43065 0.08313,-0.48862 l 0.917436,-0.99661 -1.776447,-1.22223 c -2.11411,-1.45454 -2.750028,-1.51885 -3.320633,-0.33571 -0.324535,0.67292 -0.433977,0.72599 -0.454218,0.22027 -0.01458,-0.36645 0.150635,-0.77586 0.367344,-0.9098 0.875386,-0.54102 0.287553,-1.87313 -1.651187,-3.74182 -1.124859,-1.08422 -2.146642,-1.9713 -2.270628,-1.9713 -0.123986,0 -0.400452,-0.39895 -0.614367,-0.88653 -0.213917,-0.4876 -1.06544,-1.24113 -1.892273,-1.67454 l -1.503336,-0.78801 -0.994224,1.18202 c -0.612346,0.728 -0.834766,0.86141 -0.579076,0.3473 0.442223,-0.88916 0.242252,-1.33231 -0.601182,-1.33231 -0.561361,0 -2.082946,2.7845 -2.906618,5.31911 -0.281689,0.86682 -0.582687,1.36625 -0.668876,1.10981 -0.08619,-0.25641 0.463147,-1.80782 1.220753,-3.44758 1.555693,-3.36709 1.3908,-3.59038 -1.729366,-2.34195 -1.47421,0.58986 -1.652764,0.58986 -2.304555,0 -1.013778,-0.91747 -1.135845,-0.82937 -1.434127,1.03515 -0.147351,0.92098 -1.039201,4.77734 -1.981903,8.5697 -0.942699,3.79232 -1.901556,8.73132 -2.130791,10.97551 -0.846677,8.28896 -0.235252,9.49433 0.92816,1.8298 0.621219,-4.09259 2.08849,-10.43002 2.16557,-9.35356 0.01954,0.27317 -0.305318,2.04622 -0.72196,3.94008 -1.52225,6.91957 -2.626735,16.05874 -1.9884,16.45323 0.142735,0.0882 0.570074,-1.73908 0.949638,-4.06064 0.379564,-2.32158 0.838708,-4.75295 1.020319,-5.40308 0.181616,-0.65011 0.534643,-2.2156 0.784512,-3.47882 0.24987,-1.26324 0.528053,-2.22306 0.618182,-2.13293 0.09011,0.0901 -0.265028,2.27492 -0.789237,4.85514 -0.524214,2.58016 -0.810894,4.78113 -0.637067,4.89098 0.173817,0.1099 -0.0083,1.44086 -0.4045,2.9578 -0.396298,1.51695 -0.711363,3.46729 -0.700144,4.33411 0.01659,1.28099 0.183259,0.91219 0.890346,-1.97006 0.478474,-1.95036 1.193889,-4.39223 1.589815,-5.4264 z m 6.122229,1.14057 c 0,-0.0818 0.31028,-0.39212 0.689516,-0.68955 0.624922,-0.49006 0.638857,-0.47613 0.148768,0.14879 -0.514724,0.65632 -0.83828,0.86505 -0.83828,0.54076 z m 14.504474,-0.90843 c 0.284423,-0.11381 0.624258,-0.0998 0.755186,0.0313 0.130932,0.13091 -0.101781,0.22406 -0.517137,0.20695 -0.459001,-0.0189 -0.55236,-0.11241 -0.238049,-0.23805 z m -21.565539,-1.1427 c 0.01891,-0.45901 0.112278,-0.55237 0.238041,-0.23806 0.113818,0.28447 0.09983,0.62426 -0.03108,0.75521 -0.130929,0.13089 -0.224052,-0.10169 -0.206942,-0.51715 z m 0.39504,-1.04045 c -0.09763,-0.86648 5.17556,-12.52003 5.66529,-12.52003 0.254919,0 -0.757831,2.2977 -1.944509,4.41169 -0.571367,1.01784 -1.097388,2.34763 -1.16893,2.95507 -0.07154,0.60742 -0.150298,1.22474 -0.175006,1.37178 -0.0247,0.14698 -0.301294,0.52374 -0.614632,0.83707 -0.313336,0.31335 -0.83079,1.1682 -1.149884,1.89971 -0.3191,0.73149 -0.59465,1.20162 -0.612329,1.04471 z m 5.483997,-1.48779 c 0.686532,-0.86681 1.336896,-1.57603 1.445249,-1.57603 0.108354,0 -0.364706,0.70922 -1.051242,1.57603 -0.686535,0.86682 -1.336897,1.57606 -1.445252,1.57606 -0.108354,0 0.36471,-0.70924 1.051245,-1.57606 z m -2.485293,-1.58672 c 0.608443,-1.08939 1.524466,-2.4635 2.035611,-3.05356 0.848992,-0.98008 0.875403,-0.98767 0.305413,-0.0879 -0.343167,0.54175 -1.173325,1.91586 -1.844793,3.05357 -1.558526,2.64069 -1.961898,2.71208 -0.496231,0.0879 z m 10.804857,1.27399 c 2.333334,-1.75499 4.671995,-2.88904 2.605186,-1.2633 -0.550989,0.43341 -1.173757,0.78802 -1.383922,0.78802 -0.210169,0 -0.602846,0.26595 -0.872621,0.59101 -0.269775,0.32506 -0.670004,0.59101 -0.889399,0.59101 -0.219395,0 0.02397,-0.31803 0.540756,-0.70674 z m 11.380908,-0.0813 c 0.325062,-0.21005 0.856972,-0.37221 1.182031,-0.36028 0.389697,0.0149 0.322591,0.13698 -0.197005,0.36028 -1.08317,0.46545 -1.705262,0.46545 -0.985026,0 z M 53.100158,186.5078 c 0.508962,-0.54176 1.014035,-0.985 1.122389,-0.985 0.108354,0 -0.219417,0.44324 -0.72838,0.985 -0.508962,0.54176 -1.014035,0.98503 -1.122386,0.98503 -0.108354,0 0.219415,-0.44327 0.728377,-0.98503 z m 4.531109,-1.77303 c 0.846426,-0.86682 1.627614,-1.57604 1.735967,-1.57604 0.108354,0 -0.495528,0.70922 -1.341958,1.57604 -0.846426,0.86681 -1.627612,1.57602 -1.735965,1.57602 -0.108355,0 0.495531,-0.70921 1.341956,-1.57602 z m -9.259223,0.39399 c 0.231955,-0.43341 0.510387,-0.78801 0.618741,-0.78801 0.108354,0 0.0071,0.3546 -0.224731,0.78801 -0.231953,0.43343 -0.51039,0.78803 -0.618743,0.78803 -0.108354,0 -0.0071,-0.3546 0.224733,-0.78803 z m 5.910143,-0.17015 c 0,-0.0936 0.576239,-0.56836 1.280531,-1.05498 l 1.28053,-0.88484 -0.955202,1.05499 c -0.851801,0.94078 -1.605859,1.35628 -1.605859,0.88483 z m -1.265166,-3.67144 c 1.080682,-1.24606 2.378399,-2.62013 2.883815,-3.05355 0.505415,-0.43343 -0.294318,0.58606 -1.777184,2.26556 -1.482865,1.67946 -2.780584,3.05354 -2.883815,3.05354 -0.103232,0 0.696499,-1.01948 1.777184,-2.26555 z m -5.413576,1.28055 c -0.0106,-0.43339 0.31805,-1.67455 0.730025,-2.75807 1.051959,-2.76671 4.672154,-10.44126 4.9253,-10.44126 0.24407,0 0.111623,0.31319 -1.916114,4.53112 -0.833443,1.73363 -2.011437,4.57051 -2.61777,6.30413 -0.606329,1.73366 -1.110981,2.7975 -1.121441,2.36408 z m 12.194874,0.46772 c 0,-0.0677 0.576239,-0.64406 1.280531,-1.28052 l 1.280532,-1.15725 -1.157241,1.28052 c -1.078711,1.19365 -1.403822,1.46164 -1.403822,1.15725 z m -2.03297,-1.64975 c 1.970306,-2.57685 3.185739,-3.95947 3.20083,-3.64118 0.01414,0.2983 -1.148805,1.71948 -3.279392,4.00747 -1.087542,1.16789 -1.084823,1.15522 0.07855,-0.36629 z m -11.351286,-0.59101 c 0,-0.32506 0.171874,-0.85698 0.381942,-1.18204 0.339506,-0.52535 0.38194,-0.52535 0.38194,0 0,0.32506 -0.171868,0.85698 -0.38194,1.18204 -0.339506,0.52534 -0.381942,0.52534 -0.381942,0 z m 16.733338,-0.78803 c 0.392233,-0.4334 0.801801,-0.78803 0.910154,-0.78803 0.108354,0 -0.123911,0.35463 -0.516145,0.78803 -0.392232,0.43341 -0.801801,0.78803 -0.910155,0.78803 -0.108355,0 0.123911,-0.35462 0.516146,-0.78803 z m 2.758065,-1.97006 c 0.392234,-0.4334 0.801804,-0.788 0.910156,-0.788 0.108354,0 -0.123911,0.3546 -0.516146,0.788 -0.392233,0.43343 -0.801801,0.78802 -0.910153,0.78802 -0.108354,0 0.123911,-0.35459 0.516143,-0.78802 z m -13.987335,-1.57603 c 0.442218,-0.86681 0.892687,-1.57604 1.001039,-1.57604 0.108354,0 -0.16481,0.70923 -0.607032,1.57604 -0.442219,0.86683 -0.892687,1.57603 -1.00104,1.57603 -0.108355,0 0.164811,-0.7092 0.607033,-1.57603 z m 1.182027,1.18204 c 0,-0.21672 0.18777,-0.39401 0.417265,-0.39401 0.229492,0 0.307681,0.17729 0.173751,0.39401 -0.133938,0.21671 -0.321702,0.39399 -0.417265,0.39399 -0.09555,0 -0.173751,-0.17728 -0.173751,-0.39399 z m -7.849082,-1.01787 c 0.01891,-0.45899 0.112265,-0.55234 0.238044,-0.23806 0.113817,0.28444 0.09981,0.62428 -0.0311,0.7552 -0.130927,0.13091 -0.224051,-0.10169 -0.206946,-0.51714 z m 13.636074,-1.53822 c 1.042907,-1.18914 2.047608,-2.16431 2.232675,-2.16704 0.18506,-0.004 -0.602744,0.97017 -1.750673,2.16208 -1.147933,1.19186 -2.152635,2.16704 -2.232673,2.16704 -0.08004,0 0.707768,-0.97295 1.750671,-2.16208 z m -13.242066,-0.43182 c 0.01891,-0.459 0.112266,-0.55235 0.238047,-0.23805 0.113817,0.28442 0.09983,0.62426 -0.0311,0.75517 -0.130929,0.1309 -0.224049,-0.10182 -0.206943,-0.51712 z m 7.455074,-0.53492 c 0,-0.20391 0.175276,-0.47909 0.389499,-0.61148 0.223348,-0.13805 0.2894,0.0202 0.154848,0.37076 -0.261932,0.68258 -0.544347,0.80746 -0.544347,0.24072 z m -7.029961,-1.20528 c 0,-0.54175 0.08944,-0.76339 0.198735,-0.4925 0.109301,0.27087 0.109301,0.71414 0,0.98501 -0.109301,0.27086 -0.198735,0.0492 -0.198735,-0.49251 z m 10.182036,0.41727 c 0,-0.20392 0.16921,-0.47533 0.37603,-0.60318 0.20681,-0.12775 0.856038,-1.11433 1.442723,-2.19226 0.586688,-1.07794 1.145846,-1.88073 1.242576,-1.78403 0.184453,0.18445 -2.600609,4.95023 -2.892849,4.95023 -0.09267,0 -0.16848,-0.16685 -0.16848,-0.37076 z m -0.615928,-4.13304 c 1.464508,-3.21368 2.161581,-4.51605 2.179985,-4.07306 0.01908,0.45876 -3.06628,7.00081 -3.301692,7.00081 -0.116884,0 0.387886,-1.3175 1.121707,-2.92775 z m -9.170311,2.13973 c -0.01628,-0.32505 0.210438,-1.65484 0.503832,-2.95506 0.2934,-1.30023 0.534597,-1.92079 0.535999,-1.37904 0.0028,1.10527 -0.993521,5.25831 -1.039831,4.3341 z m -8.701721,25.33694 c -0.893514,-1.86212 -1.531857,-3.47841 -1.418543,-3.59171 0.113313,-0.11342 0.206029,7.6e-4 0.206029,0.25364 0,0.25282 0.162839,0.45968 0.361866,0.45968 0.199028,0 -0.43098,-2.26065 -1.400013,-5.02363 -1.6404,-4.67723 -3.733478,-12.4574 -3.656103,-13.59008 0.04971,-0.72768 0.716995,1.54079 1.187027,4.03535 0.695589,3.69169 4.80635,15.36636 5.410632,15.36636 0.352143,0 0.453535,-0.23823 0.286568,-0.67334 -0.374819,-0.97675 -2.881813,-16.04368 -3.133155,-18.83011 -0.117287,-1.30024 0.38958,1.00471 1.126358,5.12212 2.945873,16.4626 3.13298,17.32104 3.803297,17.44924 0.562666,0.1075 0.663488,-0.74648 0.859917,-7.28463 0.168192,-5.59823 0.424074,-8.22423 1.048038,-10.75563 1.740226,-7.06002 3.200723,-13.91935 3.088149,-14.50377 -0.348251,-1.80798 -2.739222,3.59991 -4.545949,10.282 -0.725647,2.68378 -0.889964,10.04357 -0.397744,17.81511 0.173632,2.74141 0.147951,3.75496 -0.06986,2.75804 -0.414707,-1.89788 -1.20991,-11.72329 -1.213564,-14.99464 -0.0015,-1.28798 0.28923,-3.86491 0.645925,-5.72657 l 0.648541,-3.3848 -1.460199,-3.76856 c -1.464405,-3.77942 -2.361066,-5.07658 -3.279234,-4.74397 -0.270882,0.0982 -0.492512,-0.0134 -0.492512,-0.2484 0,-0.23475 -0.290444,-0.42687 -0.645426,-0.42687 -0.558903,0 -0.610093,0.34489 -0.381857,2.57259 0.144956,1.41493 0.37222,3.14364 0.505016,3.84159 0.132788,0.69797 0.134651,1.17295 0.0042,1.05548 -0.130527,-0.11746 -0.431871,-1.53587 -0.669665,-3.15208 -0.623523,-4.23782 -0.530298,-4.11557 -2.356077,-3.08942 -1.743343,0.9798 -1.760229,1.03663 -1.151523,3.87493 0.234703,1.09438 0.349761,2.21126 0.255686,2.48195 -0.09407,0.2707 -0.393235,-0.80786 -0.6648,-2.3968 -0.486313,-2.8454 -0.509477,-2.88507 -1.536217,-2.62884 -0.573352,0.14311 -1.63585,0.62596 -2.361104,1.07312 -1.106562,0.68223 -1.284131,0.98557 -1.104049,1.88596 0.300675,1.50338 4.706328,11.71615 6.578708,15.25016 0.856418,1.61642 1.551995,3.14553 1.54573,3.39797 -0.02284,0.92001 -5.907585,-10.67946 -7.307762,-14.40438 -0.792057,-2.1071 -1.677064,-4.02779 -1.966685,-4.26817 -0.769144,-0.63832 -1.786015,-0.17708 -3.516434,1.59504 l -1.532607,1.56952 0.627307,1.31547 c 0.345021,0.72352 1.586188,2.4544 2.758149,3.84642 1.171959,1.392 3.269769,4.21531 4.661797,6.27399 1.392026,2.0587 4.070082,5.83417 5.951236,8.38988 1.881157,2.55573 4.011863,5.78898 4.734906,7.185 1.908832,3.68552 1.881139,2.3269 -0.03393,-1.66421 z m -2.213739,-4.48065 c -0.142844,-0.23111 -0.175212,-0.50472 -0.07193,-0.60802 0.103295,-0.10333 0.292775,0.0857 0.421098,0.42023 0.266425,0.6943 0.03935,0.81642 -0.349172,0.18779 z m 2.007025,-15.43864 c -0.08333,-0.27089 -0.250302,-2.08826 -0.371062,-4.0386 -0.120757,-1.95035 -0.313175,-4.16669 -0.427591,-4.92513 -0.207455,-1.37527 -0.206937,-1.37583 0.18915,-0.19701 0.367747,1.09447 1.148323,9.65324 0.880392,9.65324 -0.06567,0 -0.187566,-0.22163 -0.270889,-0.4925 z m -6.287639,-3.89421 c -0.355816,-2.22517 -0.06553,-2.32162 0.432814,-0.14385 0.223078,0.97485 0.275551,1.77247 0.116606,1.77247 -0.158944,0 -0.406184,-0.73288 -0.549419,-1.62865 z m 3.768015,-1.12943 c 0,-0.54174 0.08943,-0.7634 0.19873,-0.49249 0.1093,0.27086 0.1093,0.71413 0,0.98501 -0.109301,0.27088 -0.19873,0.0492 -0.19873,-0.49252 z m 3.715705,23.34705 c -0.430415,-0.43042 -0.725558,0.25408 -0.416538,0.96605 0.293014,0.67507 0.314255,0.67448 0.477515,-0.0134 0.09397,-0.39618 0.06654,-0.82468 -0.06096,-0.95216 z m 19.660755,-1.27457 c 0.106159,-0.17177 -0.159824,-0.4046 -0.591099,-0.51738 -0.43127,-0.11279 -0.563329,0.15221 -0.563329,0.15221 l -0.699117,0.29706 c 0,0 -0.639892,0.41109 -1.15149,0.83997 l -0.930169,0.77974 1.871085,-0.61963 c 1.029097,-0.3408 1.957952,-0.76017 2.064119,-0.93197 z m -27.005946,1.27269 -1.357823,-1.47753 1.477535,1.35782 c 1.375259,1.26383 1.658697,1.59726 1.357823,1.59726 -0.06582,0 -0.730734,-0.66489 -1.477535,-1.47755 z m -6.312241,0.12912 c -0.343964,-0.52495 -0.719559,-0.54403 -3.892543,-2.07145 -2.514625,-1.73193 -3.729497,-3.06982 -0.589878,-0.91638 0.99527,0.68265 3.956991,1.8701 5.41481,2.7069 0.946706,0.54341 0.845047,0.86502 0.56919,1.05636 -0.25683,0 -0.236845,0.0309 -1.501579,-0.77543 z m 2.393356,-3.8127 -2.167052,-2.00043 2.265554,1.85561 c 1.988408,1.62863 2.529719,2.16557 2.167052,2.14956 -0.05418,-0.004 -1.073676,-0.90452 -2.265554,-2.00474 z m -5.436033,-2.8881 c -1.830132,-1.29402 -2.087699,-1.66386 -0.542321,-0.77873 0.720954,0.41293 1.496208,0.97244 1.722785,1.2433 0.58229,0.69615 0.309017,0.58861 -1.180464,-0.46457 z m 2.040756,0.0705 c -0.428627,-0.48758 -1.657406,-1.65643 -2.730619,-2.59746 -2.038313,-1.78723 -1.131234,-1.21121 1.68147,1.06777 0.900699,0.72981 1.731683,1.57201 1.846636,1.87157 0.292942,0.76338 0.102286,0.68166 -0.797487,-0.34188 z m 1.983388,-1.69376 c -0.848751,-0.76908 -1.188573,-1.2286 -0.755163,-1.02122 0.7742,0.37046 2.890044,2.41948 2.498383,2.41948 -0.110019,0 -0.894471,-0.62923 -1.74322,-1.39826 z m -8.331693,-0.91598 c -2.216769,-1.16649 -3.124589,-1.84095 -1.86769,-1.38763 0.993175,0.35824 4.12509,2.15022 4.12509,2.36027 0,0.21981 0.04817,0.24057 -2.2574,-0.97264 z m 5.193933,-2.51239 -1.5575,-1.67453 1.674541,1.55752 c 1.557308,1.44843 1.855598,1.79156 1.5575,1.79156 -0.06437,0 -0.817918,-0.75354 -1.674541,-1.67455 z m -9.339186,0.26715 c -1.472984,-0.79911 -1.383324,-1.13193 0.0985,-0.36565 0.650115,0.3362 1.182029,0.69536 1.182029,0.79816 0,0.25354 -0.04234,0.23924 -1.280532,-0.43251 z m 4.776357,-0.07 c -0.490095,-0.62495 -0.476161,-0.63887 0.148753,-0.14877 0.379234,0.29742 0.689519,0.60768 0.689519,0.6895 0,0.3243 -0.323556,0.11558 -0.838279,-0.54073 z m -1.760219,-1.37906 -0.750584,-0.88652 0.886519,0.75061 c 0.833114,0.70536 1.065893,1.02245 0.750585,1.02245 -0.07475,0 -0.473699,-0.39893 -0.88652,-0.88654 z m -1.785913,-1.3791 c -0.490094,-0.62493 -0.476159,-0.63887 0.148768,-0.14878 0.379236,0.29742 0.689519,0.6077 0.689519,0.68951 0,0.32429 -0.323556,0.11557 -0.838277,-0.54073 z m 4.556583,-0.98504 -1.157242,-1.28052 1.28053,1.15723 c 0.704291,0.63648 1.280531,1.21274 1.280531,1.28057 0,0.30437 -0.325108,0.0365 -1.403819,-1.15728 z"
           style="fill:#02631c;stroke-width:0.3940095;fill-opacity:1" />
      </g>
    </g>
  </g>
</svg>
